<svg id="visual" viewBox="0 0 900 600" width="900" height="600" xmlns="http://www.w3.org/2000/svg" xmlns:xlink="http://www.w3.org/1999/xlink" version="1.1"><path d="M620 600L654.5 585.7C689 571.3 758 542.7 776 514.2C794 485.7 761 457.3 750.5 428.8C740 400.3 752 371.7 779 343C806 314.3 848 285.7 827 257C806 228.3 722 199.7 707 171.2C692 142.7 746 114.3 765.5 85.8C785 57.3 770 28.7 762.5 14.3L755 0L900 0L900 14.3C900 28.7 900 57.3 900 85.8C900 114.3 900 142.7 900 171.2C900 199.7 900 228.3 900 257C900 285.7 900 314.3 900 343C900 371.7 900 400.3 900 428.8C900 457.3 900 485.7 900 514.2C900 542.7 900 571.3 900 585.7L900 600Z" fill="#efefef"></path><path d="M620 600L648.5 585.7C677 571.3 734 542.7 744.5 514.2C755 485.7 719 457.3 698 428.8C677 400.3 671 371.7 695 343C719 314.3 773 285.7 752 257C731 228.3 635 199.7 615.5 171.2C596 142.7 653 114.3 683 85.8C713 57.3 716 28.7 717.5 14.3L719 0L756 0L763.5 14.3C771 28.7 786 57.3 766.5 85.8C747 114.3 693 142.7 708 171.2C723 199.7 807 228.3 828 257C849 285.7 807 314.3 780 343C753 371.7 741 400.3 751.5 428.8C762 457.3 795 485.7 777 514.2C759 542.7 690 571.3 655.5 585.7L621 600Z" fill="#dddddd"></path><path d="M485 600L512 585.7C539 571.3 593 542.7 624.5 514.2C656 485.7 665 457.3 656 428.8C647 400.3 620 371.7 624.5 343C629 314.3 665 285.7 654.5 257C644 228.3 587 199.7 578 171.2C569 142.7 608 114.3 624.5 85.8C641 57.3 635 28.7 632 14.3L629 0L720 0L718.5 14.3C717 28.7 714 57.3 684 85.8C654 114.3 597 142.7 616.5 171.2C636 199.7 732 228.3 753 257C774 285.7 720 314.3 696 343C672 371.7 678 400.3 699 428.8C720 457.3 756 485.7 745.5 514.2C735 542.7 678 571.3 649.5 585.7L621 600Z" fill="#cccccc"></path><path d="M305 600L317 585.7C329 571.3 353 542.7 384.5 514.2C416 485.7 455 457.3 471.5 428.8C488 400.3 482 371.7 480.5 343C479 314.3 482 285.7 452 257C422 228.3 359 199.7 342.5 171.2C326 142.7 356 114.3 377 85.8C398 57.3 410 28.7 416 14.3L422 0L630 0L633 14.3C636 28.7 642 57.3 625.5 85.8C609 114.3 570 142.7 579 171.2C588 199.7 645 228.3 655.5 257C666 285.7 630 314.3 625.5 343C621 371.7 648 400.3 657 428.8C666 457.3 657 485.7 625.5 514.2C594 542.7 540 571.3 513 585.7L486 600Z" fill="#bababa"></path><path d="M305 600L311 585.7C317 571.3 329 542.7 327.5 514.2C326 485.7 311 457.3 312.5 428.8C314 400.3 332 371.7 344 343C356 314.3 362 285.7 341 257C320 228.3 272 199.7 266 171.2C260 142.7 296 114.3 305 85.8C314 57.3 296 28.7 287 14.3L278 0L423 0L417 14.3C411 28.7 399 57.3 378 85.8C357 114.3 327 142.7 343.5 171.2C360 199.7 423 228.3 453 257C483 285.7 480 314.3 481.5 343C483 371.7 489 400.3 472.5 428.8C456 457.3 417 485.7 385.5 514.2C354 542.7 330 571.3 318 585.7L306 600Z" fill="#b7b7b7"></path><path d="M224 600L243.5 585.7C263 571.3 302 542.7 297.5 514.2C293 485.7 245 457.3 240.5 428.8C236 400.3 275 371.7 303.5 343C332 314.3 350 285.7 318.5 257C287 228.3 206 199.7 189.5 171.2C173 142.7 221 114.3 240.5 85.8C260 57.3 251 28.7 246.5 14.3L242 0L279 0L288 14.3C297 28.7 315 57.3 306 85.8C297 114.3 261 142.7 267 171.2C273 199.7 321 228.3 342 257C363 285.7 357 314.3 345 343C333 371.7 315 400.3 313.5 428.8C312 457.3 327 485.7 328.5 514.2C330 542.7 318 571.3 312 585.7L306 600Z" fill="#bababa"></path><path d="M152 600L171.5 585.7C191 571.3 230 542.7 225.5 514.2C221 485.7 173 457.3 159.5 428.8C146 400.3 167 371.7 186.5 343C206 314.3 224 285.7 195.5 257C167 228.3 92 199.7 96.5 171.2C101 142.7 185 114.3 195.5 85.8C206 57.3 143 28.7 111.5 14.3L80 0L243 0L247.5 14.3C252 28.7 261 57.3 241.5 85.8C222 114.3 174 142.7 190.5 171.2C207 199.7 288 228.3 319.5 257C351 285.7 333 314.3 304.5 343C276 371.7 237 400.3 241.5 428.8C246 457.3 294 485.7 298.5 514.2C303 542.7 264 571.3 244.5 585.7L225 600Z" fill="#cccccc"></path><path d="M53 600L78.5 585.7C104 571.3 155 542.7 165.5 514.2C176 485.7 146 457.3 128 428.8C110 400.3 104 371.7 110 343C116 314.3 134 285.7 119 257C104 228.3 56 199.7 62 171.2C68 142.7 128 114.3 132.5 85.8C137 57.3 86 28.7 60.5 14.3L35 0L81 0L112.5 14.3C144 28.7 207 57.3 196.5 85.8C186 114.3 102 142.7 97.5 171.2C93 199.7 168 228.3 196.5 257C225 285.7 207 314.3 187.5 343C168 371.7 147 400.3 160.5 428.8C174 457.3 222 485.7 226.5 514.2C231 542.7 192 571.3 172.5 585.7L153 600Z" fill="#dddddd"></path><path d="M0 600L0 585.7C0 571.3 0 542.7 0 514.2C0 485.7 0 457.3 0 428.8C0 400.3 0 371.7 0 343C0 314.3 0 285.7 0 257C0 228.3 0 199.7 0 171.2C0 142.7 0 114.3 0 85.8C0 57.3 0 28.7 0 14.3L0 0L36 0L61.5 14.3C87 28.7 138 57.3 133.5 85.8C129 114.3 69 142.7 63 171.2C57 199.7 105 228.3 120 257C135 285.7 117 314.3 111 343C105 371.7 111 400.3 129 428.8C147 457.3 177 485.7 166.5 514.2C156 542.7 105 571.3 79.5 585.7L54 600Z" fill="#efefef"></path></svg>